<?xml version="1.0" encoding="UTF-8"?>
<svg xmlns="http://www.w3.org/2000/svg" viewBox="0 0 6933.080 1450.000">
  <title>Mnemo Newsreader wordmark</title>
  <desc>Outlined Newsreader Regular, optical size 72, with -0.01em tracking.</desc>
  <g transform="translate(-37.000 1430.000) scale(1 -1)">
    <path fill="#232820" d="M1841.000,71.000 L2020.000,29.000 L2020.000,0.000 L1452.000,0.000 L1452.000,29.000 L1631.000,71.000 L1536.000,1327.000 L1550.000,1325.000 L985.000,-20.000 L951.000,-20.000 L345.000,1291.000 L359.000,1294.000 L279.000,71.000 L478.000,29.000 L478.000,0.000 L37.000,0.000 L37.000,29.000 L216.000,71.000 L299.000,1336.000 L116.000,1401.000 L116.000,1430.000 L503.000,1430.000 L1062.000,219.000 L1024.000,219.000 L1528.000,1430.000 L1936.000,1430.000 L1936.000,1401.000 L1738.000,1360.000 Z M2400.520,860.000 L2400.520,57.000 L2543.520,27.000 L2543.520,0.000 L2073.520,0.000 L2073.520,27.000 L2216.520,57.000 L2216.520,856.000 C2205.853,862.667 2190.687,872.167 2171.020,884.500 C2151.353,896.833 2118.853,917.333 2073.520,946.000 L2073.520,964.000 L2396.520,1055.000 L2400.520,1055.000 Z M2720.520,27.000 L2864.520,57.000 L2864.520,700.000 C2864.520,834.000 2797.520,902.000 2645.520,902.000 C2540.187,902.000 2439.187,866.667 2376.520,836.000 L2363.520,857.000 C2467.520,934.333 2541.520,982.333 2601.520,1009.000 C2661.520,1035.667 2711.520,1044.000 2771.520,1044.000 C2967.520,1044.000 3048.520,943.667 3048.520,717.000 L3048.520,57.000 L3191.520,27.000 L3191.520,0.000 L2720.520,0.000 Z M3753.040,1044.000 C3963.040,1044.000 4097.040,912.000 4115.040,664.000 L3453.040,664.000 L3453.040,722.000 L4005.040,722.000 L3927.040,682.000 C3907.040,898.000 3843.040,995.000 3723.040,995.000 C3561.040,995.000 3464.040,849.000 3464.040,595.000 C3464.040,261.000 3598.040,123.000 3836.040,123.000 C3946.040,123.000 4057.040,168.000 4123.040,258.000 L4139.040,247.000 C4015.040,49.000 3896.040,-20.000 3734.040,-20.000 C3560.707,-20.000 3415.207,58.833 3334.540,211.500 C3294.207,287.833 3274.040,382.000 3274.040,494.000 C3274.040,692.667 3351.207,867.833 3494.540,968.500 C3566.207,1018.833 3652.373,1044.000 3753.040,1044.000 Z M4537.560,860.000 L4537.560,57.000 L4680.560,27.000 L4680.560,0.000 L4210.560,0.000 L4210.560,27.000 L4353.560,57.000 L4353.560,856.000 C4342.893,862.667 4327.727,872.167 4308.060,884.500 C4288.393,896.833 4255.893,917.333 4210.560,946.000 L4210.560,964.000 L4533.560,1055.000 L4537.560,1055.000 Z M5145.560,736.000 L5145.560,57.000 L5288.560,27.000 L5288.560,0.000 L4817.560,0.000 L4817.560,27.000 L4961.560,57.000 L4961.560,716.000 C4961.560,840.000 4899.560,902.000 4759.560,902.000 C4664.893,902.000 4571.227,870.333 4512.560,841.000 L4500.560,868.000 C4697.893,1014.667 4772.560,1044.000 4884.560,1044.000 C5068.560,1044.000 5145.560,950.000 5145.560,736.000 Z M5753.560,736.000 L5753.560,57.000 L5896.560,27.000 L5896.560,0.000 L5425.560,0.000 L5425.560,27.000 L5569.560,57.000 L5569.560,716.000 C5569.560,840.000 5507.560,902.000 5367.560,902.000 C5272.893,902.000 5179.227,870.333 5120.560,841.000 L5108.560,868.000 C5305.893,1014.667 5380.560,1044.000 5492.560,1044.000 C5676.560,1044.000 5753.560,950.667 5753.560,736.000 Z M6471.080,24.000 C6665.080,24.000 6767.080,191.000 6767.080,511.000 C6767.080,833.000 6667.080,1000.000 6477.080,1000.000 C6283.080,1000.000 6181.080,833.000 6181.080,513.000 C6181.080,193.000 6281.080,24.000 6471.080,24.000 Z M6469.080,-20.000 C6287.747,-20.000 6132.080,75.833 6044.080,236.500 C6000.080,316.833 5978.080,409.000 5978.080,513.000 C5978.080,617.000 6000.580,709.000 6045.580,789.000 C6135.580,949.000 6293.747,1044.000 6479.080,1044.000 C6664.413,1044.000 6818.413,948.000 6905.080,788.000 C6948.413,708.000 6970.080,615.667 6970.080,511.000 C6970.080,407.000 6947.247,315.000 6901.580,235.000 C6855.913,155.000 6795.080,92.500 6719.080,47.500 C6643.080,2.500 6559.747,-20.000 6469.080,-20.000 Z"/>
  </g>
</svg>
